<svg xmlns="http://www.w3.org/2000/svg" xmlns:xlink="http://www.w3.org/1999/xlink" width="180" zoomAndPan="magnify" viewBox="0 0 135 30.000001" height="40" preserveAspectRatio="xMidYMid meet" version="1.0"><defs><g/><clipPath id="5a4357041c"><path d="M 2.175781 0 L 132.820312 0 L 132.820312 29.03125 L 2.175781 29.03125 Z M 2.175781 0 " clip-rule="nonzero"/></clipPath></defs><g clip-path="url(#5a4357041c)"><path fill="#ffffff" d="M 2.175781 0 L 132.824219 0 L 132.824219 29.03125 L 2.175781 29.03125 Z M 2.175781 0 " fill-opacity="1" fill-rule="nonzero"/><path fill="#ffffff" d="M 2.175781 0 L 132.824219 0 L 132.824219 29.03125 L 2.175781 29.03125 Z M 2.175781 0 " fill-opacity="1" fill-rule="nonzero"/></g><g fill="#7435ff" fill-opacity="1"><g transform="translate(8.450988, 24.802187)"><g><path d="M 0.90625 0 L 0.90625 -21.171875 L 15.3125 -21.171875 L 15.3125 -17.703125 L 4.6875 -17.703125 L 4.6875 -12.890625 L 13.4375 -12.890625 L 13.4375 -9.40625 L 4.6875 -9.40625 L 4.6875 -3.453125 L 15.3125 -3.453125 L 15.3125 0.03125 Z M 0.90625 0 "/></g></g></g><g fill="#7435ff" fill-opacity="1"><g transform="translate(24.210498, 24.802187)"><g><path d="M 8.265625 -15.34375 C 9.835938 -15.34375 11.207031 -15.015625 12.375 -14.359375 C 13.539062 -13.703125 14.453125 -12.785156 15.109375 -11.609375 C 15.765625 -10.441406 16.09375 -9.070312 16.09375 -7.5 L 16.09375 0 L 12.46875 0 L 12.46875 -1.453125 C 12.101562 -0.984375 11.539062 -0.578125 10.78125 -0.234375 C 10.03125 0.0976562 9.097656 0.265625 7.984375 0.265625 C 6.535156 0.265625 5.238281 -0.0546875 4.09375 -0.703125 C 2.957031 -1.359375 2.066406 -2.273438 1.421875 -3.453125 C 0.773438 -4.640625 0.453125 -6.007812 0.453125 -7.5625 C 0.453125 -9.113281 0.78125 -10.472656 1.4375 -11.640625 C 2.09375 -12.816406 3.003906 -13.726562 4.171875 -14.375 C 5.335938 -15.019531 6.703125 -15.34375 8.265625 -15.34375 Z M 12.46875 -7.53125 C 12.46875 -8.945312 12.082031 -10.046875 11.3125 -10.828125 C 10.539062 -11.617188 9.53125 -12.015625 8.28125 -12.015625 C 7.007812 -12.015625 5.988281 -11.617188 5.21875 -10.828125 C 4.457031 -10.046875 4.078125 -8.945312 4.078125 -7.53125 C 4.078125 -6.125 4.457031 -5.023438 5.21875 -4.234375 C 5.988281 -3.453125 7.007812 -3.0625 8.28125 -3.0625 C 9.53125 -3.0625 10.539062 -3.453125 11.3125 -4.234375 C 12.082031 -5.023438 12.46875 -6.125 12.46875 -7.53125 Z M 12.46875 -7.53125 "/></g></g></g><g fill="#7435ff" fill-opacity="1"><g transform="translate(41.210201, 24.802187)"><g><path d="M 4.328125 -11.046875 C 4.328125 -10.679688 4.519531 -10.390625 4.90625 -10.171875 C 5.300781 -9.960938 5.8125 -9.78125 6.4375 -9.625 C 7.0625 -9.476562 7.726562 -9.300781 8.4375 -9.09375 C 9.144531 -8.894531 9.8125 -8.617188 10.4375 -8.265625 C 11.0625 -7.921875 11.566406 -7.453125 11.953125 -6.859375 C 12.347656 -6.273438 12.546875 -5.507812 12.546875 -4.5625 C 12.546875 -3.03125 11.992188 -1.851562 10.890625 -1.03125 C 9.796875 -0.21875 8.382812 0.1875 6.65625 0.1875 C 5.582031 0.1875 4.632812 0.0546875 3.8125 -0.203125 C 3 -0.472656 2.316406 -0.785156 1.765625 -1.140625 C 1.210938 -1.503906 0.773438 -1.832031 0.453125 -2.125 L 2.390625 -4.96875 C 3.035156 -4.351562 3.734375 -3.894531 4.484375 -3.59375 C 5.242188 -3.289062 6 -3.140625 6.75 -3.140625 C 7.375 -3.140625 7.890625 -3.242188 8.296875 -3.453125 C 8.710938 -3.671875 8.921875 -4.003906 8.921875 -4.453125 C 8.921875 -4.890625 8.722656 -5.226562 8.328125 -5.46875 C 7.941406 -5.71875 7.4375 -5.921875 6.8125 -6.078125 C 6.1875 -6.242188 5.519531 -6.421875 4.8125 -6.609375 C 4.101562 -6.796875 3.4375 -7.054688 2.8125 -7.390625 C 2.1875 -7.722656 1.675781 -8.171875 1.28125 -8.734375 C 0.894531 -9.304688 0.703125 -10.054688 0.703125 -10.984375 C 0.703125 -12.367188 1.1875 -13.441406 2.15625 -14.203125 C 3.132812 -14.972656 4.484375 -15.359375 6.203125 -15.359375 C 7.691406 -15.359375 8.945312 -15.113281 9.96875 -14.625 C 10.988281 -14.132812 11.832031 -13.613281 12.5 -13.0625 L 10.5625 -10.25 C 9.75 -10.914062 8.960938 -11.378906 8.203125 -11.640625 C 7.453125 -11.910156 6.765625 -12.046875 6.140625 -12.046875 C 4.929688 -12.046875 4.328125 -11.710938 4.328125 -11.046875 Z M 4.328125 -11.046875 "/></g></g></g><g fill="#7435ff" fill-opacity="1"><g transform="translate(54.217092, 24.802187)"><g><path d="M 4.5 -9.6875 L 12.09375 -9.6875 C 11.769531 -10.425781 11.28125 -11 10.625 -11.40625 C 9.976562 -11.8125 9.195312 -12.015625 8.28125 -12.015625 C 7.394531 -12.015625 6.625 -11.8125 5.96875 -11.40625 C 5.3125 -11 4.820312 -10.425781 4.5 -9.6875 Z M 8.28125 -3.0625 C 9.820312 -3.0625 10.960938 -3.601562 11.703125 -4.6875 L 15.671875 -4.6875 C 15.160156 -3.15625 14.265625 -1.945312 12.984375 -1.0625 C 11.710938 -0.175781 10.15625 0.265625 8.3125 0.265625 C 6.757812 0.265625 5.394531 -0.0546875 4.21875 -0.703125 C 3.039062 -1.359375 2.125 -2.273438 1.46875 -3.453125 C 0.8125 -4.640625 0.484375 -6.007812 0.484375 -7.5625 C 0.484375 -9.113281 0.8125 -10.472656 1.46875 -11.640625 C 2.125 -12.816406 3.039062 -13.726562 4.21875 -14.375 C 5.394531 -15.019531 6.757812 -15.34375 8.3125 -15.34375 C 9.882812 -15.34375 11.253906 -15.019531 12.421875 -14.375 C 13.597656 -13.726562 14.507812 -12.816406 15.15625 -11.640625 C 15.800781 -10.472656 16.125 -9.113281 16.125 -7.5625 C 16.125 -7.363281 16.117188 -7.160156 16.109375 -6.953125 C 16.097656 -6.753906 16.082031 -6.554688 16.0625 -6.359375 L 4.234375 -6.359375 C 4.429688 -5.304688 4.890625 -4.492188 5.609375 -3.921875 C 6.328125 -3.347656 7.21875 -3.0625 8.28125 -3.0625 Z M 8.28125 -3.0625 "/></g></g></g><g fill="#7435ff" fill-opacity="1"><g transform="translate(70.823567, 24.802187)"><g><path d="M 0.90625 -8.46875 C 0.90625 -10.769531 1.582031 -12.5 2.9375 -13.65625 C 4.289062 -14.8125 6.113281 -15.390625 8.40625 -15.390625 L 8.40625 -12.0625 C 7.195312 -12.0625 6.25 -11.765625 5.5625 -11.171875 C 4.875 -10.578125 4.53125 -9.675781 4.53125 -8.46875 L 4.53125 0 L 0.90625 0 Z M 0.90625 -8.46875 "/></g></g></g><g fill="#7435ff" fill-opacity="1"><g transform="translate(79.716652, 24.802187)"><g><path d="M 0.90625 -8.46875 C 0.90625 -10.769531 1.582031 -12.5 2.9375 -13.65625 C 4.289062 -14.8125 6.113281 -15.390625 8.40625 -15.390625 L 8.40625 -12.0625 C 7.195312 -12.0625 6.25 -11.765625 5.5625 -11.171875 C 4.875 -10.578125 4.53125 -9.675781 4.53125 -8.46875 L 4.53125 0 L 0.90625 0 Z M 0.90625 -8.46875 "/></g></g></g><g fill="#7435ff" fill-opacity="1"><g transform="translate(88.609738, 24.802187)"><g><path d="M 0.90625 -1.96875 C 0.90625 -2.632812 1.109375 -3.164062 1.515625 -3.5625 C 1.929688 -3.96875 2.472656 -4.171875 3.140625 -4.171875 C 3.804688 -4.171875 4.347656 -3.96875 4.765625 -3.5625 C 5.179688 -3.164062 5.390625 -2.632812 5.390625 -1.96875 C 5.390625 -1.28125 5.179688 -0.734375 4.765625 -0.328125 C 4.347656 0.0664062 3.804688 0.265625 3.140625 0.265625 C 2.472656 0.265625 1.929688 0.0664062 1.515625 -0.328125 C 1.109375 -0.734375 0.90625 -1.28125 0.90625 -1.96875 Z M 0.90625 -1.96875 "/></g></g></g></svg>